<svg id="svg" xmlns="http://www.w3.org/2000/svg" xmlns:xlink="http://www.w3.org/1999/xlink" width="400" height="400" viewBox="0, 0, 400,400" version="1.1"><g id="svgg"><path id="path0" d="M349.300 0.963 C 348.144 2.183,348.125 2.030,350.000 6.704 C 351.929 11.512,351.974 12.700,350.428 18.103 C 349.783 20.356,348.325 25.800,347.187 30.200 C 340.253 57.010,331.978 79.819,321.321 101.496 C 317.863 108.531,317.013 109.420,312.617 110.610 C 308.255 111.791,307.458 110.744,308.197 104.800 C 308.725 100.549,308.284 99.033,304.511 92.112 C 302.017 87.536,300.713 85.556,296.931 80.600 C 294.551 77.481,287.121 70.002,286.676 70.277 C 286.456 70.412,286.389 70.342,286.526 70.119 C 286.767 69.730,283.988 67.200,283.320 67.200 C 283.140 67.200,282.768 66.840,282.493 66.400 C 282.218 65.960,281.826 65.600,281.621 65.600 C 281.417 65.600,280.669 65.070,279.959 64.421 C 279.249 63.773,278.158 63.031,277.534 62.773 C 276.910 62.514,276.400 62.152,276.400 61.968 C 276.400 61.784,275.545 61.136,274.500 60.528 C 273.455 59.920,271.994 59.015,271.253 58.517 C 270.512 58.019,269.747 57.709,269.553 57.829 C 269.359 57.949,269.200 57.857,269.200 57.624 C 269.200 57.391,268.930 57.200,268.600 57.200 C 268.270 57.200,268.000 57.009,268.000 56.776 C 268.000 56.543,267.820 56.464,267.600 56.600 C 267.380 56.736,267.200 56.678,267.200 56.470 C 267.200 56.109,265.724 55.467,265.100 55.557 C 264.935 55.581,264.800 55.420,264.800 55.200 C 264.800 54.980,264.530 54.800,264.200 54.800 C 263.870 54.800,263.600 54.652,263.600 54.472 C 263.600 54.165,259.877 52.411,253.400 49.666 C 245.687 46.398,226.988 41.020,222.300 40.721 C 221.255 40.655,220.400 40.464,220.400 40.297 C 220.400 40.130,219.635 40.006,218.700 40.021 C 216.817 40.051,215.729 39.893,214.747 39.447 C 214.388 39.284,213.347 39.225,212.434 39.317 C 211.522 39.408,210.698 39.358,210.604 39.206 C 210.510 39.054,208.913 38.945,207.055 38.965 C 205.179 38.984,203.774 38.842,203.896 38.645 C 204.023 38.440,201.853 38.403,198.758 38.559 C 195.811 38.706,192.382 38.811,191.138 38.791 C 189.894 38.771,188.759 38.942,188.617 39.172 C 188.464 39.421,187.385 39.518,185.945 39.412 C 183.908 39.262,183.603 39.322,183.995 39.795 C 184.369 40.245,184.303 40.343,183.658 40.294 C 183.217 40.261,182.961 40.063,183.090 39.854 C 183.233 39.622,182.949 39.598,182.363 39.791 C 181.833 39.965,180.556 40.098,179.525 40.086 C 177.999 40.069,177.694 40.179,177.886 40.679 C 178.083 41.194,177.983 41.219,177.261 40.832 C 176.787 40.579,176.400 40.529,176.400 40.722 C 176.400 40.914,175.545 41.056,174.500 41.036 C 173.179 41.011,172.630 41.152,172.700 41.500 C 172.821 42.106,172.150 42.166,171.788 41.581 C 171.611 41.293,171.352 41.308,170.969 41.625 C 170.662 41.881,170.112 41.975,169.749 41.836 C 169.203 41.626,169.173 41.685,169.578 42.173 C 170.195 42.917,169.800 43.600,168.753 43.600 C 168.250 43.600,168.059 43.428,168.238 43.138 C 168.413 42.855,168.348 42.785,168.070 42.957 C 167.821 43.111,167.208 43.027,166.708 42.770 C 165.958 42.384,165.887 42.394,166.300 42.831 C 167.130 43.709,166.873 44.328,165.386 45.034 C 163.147 46.096,163.924 46.164,171.908 45.606 C 188.357 44.457,207.195 45.917,216.770 49.083 C 220.931 50.458,219.768 50.600,204.300 50.601 C 177.121 50.604,160.250 54.585,140.449 65.669 C 99.283 88.711,77.026 129.049,59.945 211.568 C 51.736 251.232,36.194 293.015,18.800 322.182 C 13.087 331.763,12.153 332.422,6.626 330.782 C 2.573 329.579,2.467 329.393,4.185 326.543 C 4.962 325.254,5.598 323.705,5.599 323.100 C 5.600 322.357,5.808 322.000,6.243 322.000 C 6.637 322.000,6.800 321.778,6.665 321.426 C 6.544 321.110,6.651 320.783,6.902 320.699 C 7.178 320.607,7.109 320.451,6.730 320.305 C 6.309 320.144,5.919 320.418,5.551 321.132 C 5.248 321.719,4.505 322.709,3.900 323.331 C 3.295 323.953,2.800 324.718,2.800 325.031 C 2.800 325.344,2.623 325.600,2.407 325.600 C 2.190 325.600,1.585 326.455,1.061 327.500 C 0.062 329.492,-0.499 336.000,0.328 336.000 C 0.536 336.000,0.795 336.337,0.902 336.748 C 1.129 337.614,3.780 339.717,9.312 343.419 C 26.076 354.636,57.002 368.966,83.800 377.933 C 92.753 380.929,98.834 382.793,106.200 384.799 C 106.860 384.979,109.740 385.781,112.600 386.582 C 125.644 390.235,144.876 394.630,155.400 396.363 C 156.940 396.617,159.100 396.991,160.200 397.196 C 164.329 397.963,167.127 398.363,171.400 398.797 C 173.820 399.043,176.669 399.414,177.731 399.622 C 180.262 400.118,230.929 400.119,233.469 399.624 C 234.531 399.417,237.110 399.045,239.200 398.798 C 242.552 398.402,244.987 397.988,251.000 396.792 C 251.880 396.617,253.590 396.291,254.800 396.068 C 258.408 395.403,268.472 392.730,270.300 391.952 C 273.665 390.520,272.486 388.200,267.800 387.032 C 246.982 381.840,231.052 356.819,234.050 334.021 C 237.248 309.697,251.247 293.819,273.531 289.238 C 276.133 288.703,283.573 288.662,285.554 289.173 C 286.349 289.377,288.080 289.755,289.400 290.012 C 303.041 292.668,316.460 304.564,322.123 319.025 C 325.375 327.327,326.986 341.325,325.355 347.108 C 325.090 348.048,324.921 349.128,324.980 349.508 C 325.039 349.889,324.939 350.297,324.758 350.415 C 324.577 350.533,324.346 351.253,324.245 352.015 C 324.144 352.777,323.791 354.149,323.461 355.064 C 323.131 355.979,322.967 356.834,323.097 356.964 C 323.227 357.094,323.123 357.200,322.867 357.200 C 322.610 357.200,322.400 357.450,322.400 357.755 C 322.400 358.060,321.320 360.420,320.000 363.000 C 317.058 368.751,316.970 370.000,319.506 370.000 C 321.042 370.000,327.891 365.680,335.353 360.006 C 337.526 358.353,339.788 356.640,340.379 356.200 C 348.658 350.033,364.752 333.191,371.149 324.000 C 375.111 318.307,376.511 316.170,378.876 312.200 C 386.281 299.771,393.039 283.831,395.586 272.786 C 395.863 271.584,396.223 270.240,396.386 269.800 C 396.710 268.925,398.912 257.475,399.617 253.000 C 400.170 249.490,399.903 206.516,399.307 203.000 C 398.940 200.841,398.526 198.977,397.130 193.200 C 393.901 179.841,387.610 166.195,378.800 153.438 C 368.353 138.312,350.890 126.142,333.732 122.031 L 331.663 121.535 332.732 120.016 C 333.319 119.180,334.595 117.349,335.567 115.948 C 344.971 102.386,354.189 90.775,364.106 80.000 C 365.625 78.350,367.527 76.278,368.334 75.396 C 374.168 69.015,382.976 59.840,384.986 58.050 C 399.504 45.116,400.651 42.089,393.539 35.460 C 391.923 33.954,390.142 32.282,389.582 31.745 C 389.021 31.209,388.408 30.912,388.217 31.085 C 388.027 31.258,387.986 31.199,388.126 30.954 C 388.266 30.708,387.444 29.723,386.291 28.754 C 385.142 27.789,382.378 25.335,380.150 23.300 C 377.922 21.265,375.981 19.600,375.837 19.600 C 375.693 19.600,375.023 18.971,374.347 18.201 C 373.672 17.432,372.930 16.920,372.698 17.063 C 372.450 17.216,372.395 17.132,372.564 16.859 C 372.730 16.590,372.545 16.279,372.125 16.122 C 371.726 15.972,370.860 15.336,370.200 14.709 C 367.626 12.264,367.301 12.000,366.858 12.000 C 366.606 12.000,366.400 11.853,366.400 11.673 C 366.400 11.047,351.464 -0.006,350.636 0.007 C 350.396 0.011,349.795 0.441,349.300 0.963 M338.073 21.210 C 337.871 21.754,337.792 22.427,337.897 22.705 C 338.003 22.983,337.911 23.433,337.694 23.705 C 336.884 24.718,336.605 26.260,337.342 25.648 C 337.738 25.320,338.000 25.273,338.000 25.531 C 338.000 25.767,337.685 26.144,337.300 26.368 C 336.915 26.592,336.780 26.784,337.000 26.794 C 337.220 26.804,337.136 26.979,336.812 27.184 C 336.413 27.436,336.221 28.270,336.212 29.782 C 336.204 31.212,336.045 31.949,335.767 31.842 C 335.332 31.676,335.185 32.206,335.191 33.922 C 335.193 34.431,335.017 34.734,334.797 34.598 C 334.579 34.463,334.400 34.543,334.400 34.776 C 334.400 35.392,335.048 35.295,335.771 34.571 C 336.462 33.880,336.477 33.841,336.565 32.400 C 336.599 31.850,336.766 31.175,336.937 30.900 C 337.108 30.625,337.119 30.192,336.962 29.938 C 336.794 29.667,336.851 29.584,337.099 29.738 C 337.616 30.057,338.416 27.924,338.201 26.804 C 338.116 26.362,338.226 26.000,338.447 26.000 C 338.667 26.000,338.736 25.820,338.600 25.600 C 338.464 25.380,338.498 25.199,338.676 25.198 C 338.854 25.197,339.032 24.564,339.072 23.792 C 339.117 22.915,338.989 22.483,338.732 22.642 C 338.450 22.817,338.450 22.655,338.732 22.127 C 338.977 21.669,339.002 21.126,338.793 20.788 C 338.516 20.340,338.363 20.430,338.073 21.210 M334.245 36.318 C 334.484 36.473,334.765 36.865,334.870 37.190 C 335.010 37.625,335.115 37.568,335.271 36.970 C 335.431 36.360,335.278 36.146,334.646 36.098 C 334.186 36.064,334.006 36.162,334.245 36.318 M333.817 37.172 C 333.691 37.377,333.773 37.660,334.000 37.800 C 334.227 37.940,334.308 38.226,334.179 38.434 C 334.050 38.643,333.779 38.711,333.577 38.586 C 333.375 38.461,333.316 38.638,333.447 38.979 C 333.578 39.321,333.936 39.600,334.243 39.600 C 334.883 39.600,335.002 38.172,334.393 37.796 C 334.170 37.658,334.091 37.377,334.217 37.172 C 334.344 36.968,334.357 36.800,334.247 36.800 C 334.137 36.800,333.944 36.968,333.817 37.172 M331.726 43.900 C 331.589 44.285,331.393 44.753,331.290 44.940 C 331.187 45.127,331.485 45.076,331.952 44.826 C 332.418 44.576,332.800 44.278,332.800 44.162 C 332.800 44.047,332.620 44.064,332.400 44.200 C 332.180 44.336,332.000 44.272,332.000 44.057 C 332.000 43.842,332.225 43.576,332.500 43.465 C 332.892 43.307,332.889 43.256,332.487 43.232 C 332.206 43.214,331.863 43.515,331.726 43.900 M141.200 51.400 C 140.512 51.793,140.403 51.976,140.851 51.986 C 141.209 51.994,141.726 51.730,142.000 51.400 C 142.609 50.666,142.484 50.666,141.200 51.400 M107.400 75.035 L 106.200 76.066 107.500 75.206 C 108.215 74.733,108.800 74.268,108.800 74.173 C 108.800 73.873,108.631 73.978,107.400 75.035 M104.604 77.596 C 103.974 78.254,103.542 78.875,103.644 78.977 C 103.746 79.079,104.326 78.541,104.932 77.781 C 106.287 76.083,106.136 75.997,104.604 77.596 M313.666 91.038 C 313.180 92.039,312.984 92.733,313.232 92.580 C 313.721 92.278,314.940 89.607,314.699 89.366 C 314.617 89.284,314.153 90.037,313.666 91.038 M312.074 94.198 C 311.823 94.749,311.781 95.200,311.982 95.200 C 312.375 95.200,312.984 93.651,312.701 93.368 C 312.607 93.274,312.325 93.647,312.074 94.198 M58.055 170.414 C 57.804 171.133,57.788 171.531,58.016 171.390 C 58.227 171.260,58.400 170.883,58.400 170.553 C 58.400 170.223,58.578 170.063,58.795 170.197 C 59.022 170.337,59.089 170.177,58.953 169.821 C 58.625 168.967,58.540 169.023,58.055 170.414 M57.762 172.338 C 57.919 172.592,57.857 172.800,57.624 172.800 C 57.391 172.800,57.200 172.980,57.200 173.200 C 57.200 173.420,57.470 173.600,57.800 173.600 C 58.506 173.600,58.605 172.574,57.938 172.162 C 57.652 171.985,57.585 172.052,57.762 172.338 M57.094 174.239 C 56.807 174.526,57.173 175.600,57.558 175.600 C 57.707 175.600,57.857 175.240,57.890 174.800 C 57.949 174.020,57.576 173.758,57.094 174.239 M56.708 176.891 C 56.856 177.458,56.778 177.634,56.463 177.439 C 56.208 177.282,56.000 177.324,56.000 177.534 C 56.000 177.743,56.279 178.022,56.621 178.153 C 56.977 178.289,57.137 178.222,56.997 177.995 C 56.863 177.778,56.922 177.600,57.130 177.600 C 57.861 177.600,57.915 176.164,57.186 176.109 C 56.668 176.070,56.546 176.271,56.708 176.891 M55.800 179.133 C 55.377 179.557,55.630 179.925,56.278 179.830 C 57.141 179.703,57.427 178.933,56.611 178.933 C 56.275 178.933,55.910 179.023,55.800 179.133 M55.351 180.890 C 55.470 181.270,55.337 182.170,55.054 182.890 C 54.772 183.611,54.561 184.470,54.584 184.800 C 54.608 185.130,54.513 185.490,54.375 185.600 C 53.903 185.975,53.575 188.000,53.986 188.000 C 54.207 188.000,53.995 188.753,53.515 189.674 C 52.872 190.907,52.775 191.392,53.146 191.515 C 53.522 191.641,53.486 191.863,53.002 192.398 C 52.646 192.792,52.289 193.808,52.209 194.657 C 52.130 195.506,51.878 196.685,51.651 197.277 C 51.423 197.870,51.308 198.725,51.396 199.177 C 51.483 199.630,51.401 200.000,51.214 200.000 C 51.028 200.000,50.976 200.388,51.100 200.863 C 51.255 201.455,51.180 201.635,50.862 201.438 C 50.548 201.244,50.446 201.451,50.549 202.076 C 50.632 202.584,50.536 203.206,50.336 203.458 C 50.105 203.748,50.197 204.140,50.586 204.529 C 51.357 205.300,51.396 205.861,50.636 205.230 C 50.013 204.713,49.366 205.299,49.795 205.992 C 49.928 206.207,49.828 206.774,49.573 207.250 C 49.156 208.029,49.195 208.095,49.954 207.896 C 51.030 207.615,51.259 208.004,50.944 209.581 C 50.784 210.380,50.503 210.772,50.179 210.647 C 49.897 210.539,49.567 210.709,49.446 211.025 C 49.324 211.341,49.444 211.601,49.713 211.602 C 50.000 211.603,50.238 212.268,50.292 213.221 C 50.348 214.197,50.229 214.741,49.992 214.595 C 49.777 214.462,49.600 214.723,49.600 215.176 C 49.600 215.629,49.401 216.000,49.157 216.000 C 48.914 216.000,48.807 215.759,48.920 215.464 C 49.292 214.494,48.541 213.789,48.071 214.668 C 47.681 215.396,47.980 216.510,48.545 216.434 C 49.376 216.323,49.600 216.483,49.600 217.187 C 49.600 217.732,49.410 217.902,48.984 217.738 C 48.591 217.588,48.410 217.702,48.484 218.051 C 48.556 218.395,48.263 218.588,47.700 218.568 C 46.826 218.537,46.608 219.023,46.706 220.783 C 46.724 221.104,46.546 221.727,46.311 222.166 C 46.076 222.606,45.897 223.469,45.915 224.083 C 45.932 224.697,45.768 225.200,45.550 225.200 C 45.331 225.200,45.276 225.400,45.428 225.645 C 45.579 225.889,45.481 226.226,45.210 226.394 C 44.833 226.627,44.825 226.899,45.176 227.555 C 45.536 228.228,45.524 228.389,45.117 228.306 C 44.565 228.193,44.525 228.900,45.009 230.200 C 45.298 230.974,45.289 230.976,44.720 230.247 C 44.170 229.541,44.133 229.575,44.133 230.782 C 44.133 231.491,43.897 232.216,43.608 232.395 C 43.320 232.573,43.194 233.007,43.329 233.360 C 43.464 233.712,43.406 234.000,43.200 234.000 C 42.994 234.000,42.929 234.270,43.055 234.600 C 43.182 234.930,43.086 235.200,42.843 235.200 C 42.599 235.200,42.400 235.399,42.400 235.643 C 42.400 235.886,42.679 235.978,43.021 235.847 C 43.416 235.696,43.541 235.772,43.365 236.056 C 43.199 236.326,43.310 236.430,43.644 236.319 C 43.950 236.217,44.254 235.789,44.321 235.367 C 44.387 234.945,44.591 234.240,44.775 233.800 C 45.075 233.080,46.147 229.696,46.231 229.200 C 46.250 229.090,46.656 228.130,47.133 227.067 C 47.610 226.004,48.000 224.804,48.000 224.400 C 48.000 223.997,48.138 223.607,48.307 223.533 C 48.476 223.460,49.041 221.690,49.561 219.600 C 50.082 217.510,50.854 214.720,51.277 213.400 C 52.429 209.811,53.986 201.919,56.243 188.233 C 56.348 187.592,56.579 186.809,56.755 186.495 C 57.430 185.289,56.783 183.922,55.648 184.154 C 55.071 184.272,54.826 184.270,55.102 184.150 C 55.379 184.030,55.504 183.768,55.381 183.569 C 55.258 183.370,55.341 182.890,55.566 182.503 C 55.948 181.848,55.976 181.852,55.988 182.567 C 56.002 183.478,56.408 183.185,56.583 182.137 C 56.651 181.731,56.938 181.455,57.221 181.523 C 57.639 181.622,57.638 181.528,57.219 181.023 C 56.658 180.347,56.373 180.227,56.447 180.700 C 56.584 181.567,56.332 181.670,55.767 180.976 C 55.239 180.328,55.170 180.314,55.351 180.890 M42.516 237.198 C 42.401 237.639,42.153 238.000,41.966 238.000 C 41.778 238.000,41.729 238.270,41.855 238.600 C 41.982 238.930,41.903 239.200,41.680 239.200 C 41.457 239.200,41.376 239.588,41.500 240.063 C 41.655 240.654,41.580 240.835,41.263 240.639 C 41.008 240.482,40.800 240.533,40.800 240.753 C 40.800 240.973,40.980 241.264,41.200 241.400 C 41.420 241.536,41.597 241.862,41.594 242.124 C 41.590 242.418,41.424 242.370,41.159 242.000 C 40.815 241.518,40.769 241.577,40.928 242.300 C 41.067 242.936,40.940 243.200,40.496 243.200 C 40.150 243.200,39.985 243.318,40.130 243.463 C 40.275 243.608,40.243 243.923,40.059 244.163 C 39.534 244.848,39.170 246.066,39.563 245.823 C 39.757 245.703,40.017 245.868,40.141 246.189 C 40.264 246.511,40.165 246.898,39.921 247.049 C 39.652 247.215,39.589 247.141,39.762 246.862 C 39.919 246.608,39.878 246.400,39.670 246.400 C 39.310 246.400,38.911 247.315,38.551 248.969 C 38.459 249.391,38.186 249.976,37.943 250.269 C 37.613 250.666,37.640 250.803,38.051 250.812 C 38.432 250.821,38.390 250.947,37.917 251.223 C 37.540 251.442,37.335 251.885,37.459 252.211 C 37.584 252.535,37.464 252.800,37.194 252.800 C 36.827 252.800,36.842 252.972,37.251 253.477 C 37.553 253.849,37.595 254.031,37.345 253.881 C 37.081 253.723,36.769 253.983,36.599 254.504 C 36.439 254.997,36.268 255.490,36.219 255.600 C 36.171 255.710,35.984 256.160,35.804 256.600 C 35.624 257.040,35.427 257.497,35.367 257.615 C 35.307 257.733,35.674 257.865,36.183 257.907 C 37.111 257.984,38.800 255.089,38.800 253.421 C 38.800 253.075,39.147 252.028,39.571 251.096 C 39.995 250.163,40.568 248.320,40.845 247.000 C 41.121 245.680,41.598 244.204,41.906 243.721 C 42.213 243.238,42.473 242.698,42.483 242.521 C 42.493 242.344,42.550 242.020,42.610 241.800 C 43.936 236.882,43.939 236.862,43.325 236.627 C 42.944 236.480,42.650 236.688,42.516 237.198 M34.946 258.887 C 34.840 259.059,34.978 259.200,35.253 259.200 C 35.536 259.200,35.434 259.433,35.017 259.738 C 34.478 260.132,34.353 260.556,34.546 261.327 C 34.769 262.214,34.699 262.339,34.105 262.126 C 33.717 261.986,33.528 262.014,33.684 262.187 C 33.840 262.360,33.693 263.033,33.358 263.682 C 32.763 264.831,32.772 264.859,33.669 264.731 C 34.186 264.658,34.654 264.272,34.734 263.853 C 34.823 263.389,34.711 263.208,34.438 263.376 C 34.197 263.525,34.000 263.500,34.000 263.320 C 34.000 263.140,34.360 262.768,34.800 262.493 C 35.240 262.218,35.600 261.725,35.600 261.397 C 35.600 261.068,35.760 260.800,35.955 260.800 C 36.150 260.800,36.386 260.274,36.481 259.630 C 36.647 258.498,35.523 257.954,34.946 258.887 M29.711 273.592 C 29.678 274.028,29.781 274.465,29.941 274.563 C 30.100 274.662,30.266 274.305,30.311 273.771 C 30.355 273.237,30.251 272.800,30.081 272.800 C 29.910 272.800,29.743 273.156,29.711 273.592 M28.927 275.300 C 28.270 276.187,27.607 278.000,27.941 278.000 C 28.264 278.000,28.928 276.823,29.351 275.500 C 29.614 274.678,29.447 274.599,28.927 275.300 M26.620 281.300 C 26.678 281.685,26.574 282.000,26.390 282.000 C 26.205 282.000,25.927 282.405,25.772 282.900 C 25.617 283.395,25.147 284.239,24.729 284.775 C 24.028 285.671,24.021 285.780,24.631 286.121 C 25.090 286.378,25.402 286.324,25.642 285.947 C 26.128 285.179,26.082 284.804,25.500 284.775 C 25.225 284.761,25.405 284.587,25.900 284.388 C 26.473 284.157,26.800 283.686,26.800 283.093 C 26.800 282.580,27.025 281.918,27.300 281.621 C 27.631 281.265,27.641 281.172,27.330 281.346 C 27.072 281.491,26.783 281.383,26.688 281.105 C 26.593 280.827,26.562 280.915,26.620 281.300 M24.114 286.648 C 24.250 286.784,24.100 287.157,23.781 287.476 C 23.461 287.796,23.200 288.415,23.200 288.852 C 23.200 289.289,23.045 289.551,22.856 289.435 C 22.503 289.217,20.919 292.336,21.100 292.892 C 21.155 293.061,21.009 293.200,20.776 293.200 C 20.543 293.200,20.464 293.380,20.600 293.600 C 20.736 293.820,20.646 294.000,20.400 294.000 C 20.154 294.000,20.055 294.165,20.179 294.366 C 20.303 294.567,20.214 294.795,19.981 294.873 C 19.621 294.993,19.366 295.672,19.231 296.871 C 19.214 297.021,18.953 297.390,18.652 297.691 C 17.888 298.455,16.713 300.799,17.090 300.806 C 17.260 300.809,17.199 300.944,16.952 301.106 C 16.424 301.453,14.204 305.665,14.320 306.100 C 14.364 306.265,14.209 306.400,13.976 306.400 C 13.743 306.400,13.664 306.580,13.800 306.800 C 13.936 307.020,13.846 307.200,13.600 307.200 C 13.354 307.200,13.264 307.380,13.400 307.600 C 13.536 307.820,13.476 308.000,13.267 308.000 C 13.058 308.000,12.591 308.739,12.230 309.642 C 11.868 310.545,11.298 311.559,10.963 311.894 C 10.628 312.229,10.452 312.759,10.572 313.072 C 10.693 313.385,10.632 313.543,10.437 313.423 C 10.089 313.208,9.413 314.316,9.536 314.900 C 9.571 315.065,9.456 315.200,9.280 315.200 C 9.105 315.200,8.733 315.830,8.454 316.600 C 8.176 317.370,7.801 318.000,7.621 318.000 C 7.441 318.000,7.207 318.330,7.102 318.733 C 6.975 319.219,7.126 319.467,7.550 319.467 C 8.485 319.467,9.315 318.484,9.094 317.639 C 8.965 317.144,9.110 316.921,9.542 316.953 C 9.920 316.981,10.594 316.229,11.191 315.116 C 11.746 314.079,13.304 311.289,14.653 308.916 C 17.526 303.862,23.600 291.647,23.600 290.924 C 23.600 290.649,23.970 289.765,24.423 288.960 C 25.255 287.478,25.223 286.400,24.346 286.400 C 24.082 286.400,23.978 286.511,24.114 286.648 M335.260 331.500 C 337.211 337.105,335.549 345.042,331.551 349.212 C 328.338 352.563,328.137 351.980,330.213 345.333 C 330.989 342.844,332.067 338.781,332.608 336.304 C 334.002 329.916,333.978 330.000,334.377 330.000 C 334.575 330.000,334.973 330.675,335.260 331.500 " stroke="none" fill="#000000" fill-rule="evenodd"></path><path id="path1" d="M345.800 0.381 C 343.168 1.469,340.941 6.715,339.342 15.600 C 339.283 15.930,339.033 17.048,338.788 18.084 C 338.490 19.343,338.473 20.202,338.737 20.673 C 338.999 21.141,338.995 21.636,338.726 22.138 C 338.449 22.656,338.451 22.816,338.732 22.642 C 338.989 22.483,339.117 22.915,339.072 23.792 C 339.032 24.564,338.854 25.197,338.676 25.198 C 338.498 25.199,338.464 25.380,338.600 25.600 C 338.736 25.820,338.672 26.000,338.457 26.000 C 338.242 26.000,338.000 25.800,337.919 25.556 C 337.828 25.284,337.553 25.375,337.207 25.792 C 336.709 26.391,336.729 26.455,337.376 26.336 C 337.841 26.250,338.151 26.466,338.223 26.929 C 338.395 28.021,337.587 30.039,337.099 29.738 C 336.851 29.584,336.794 29.667,336.962 29.938 C 337.119 30.192,337.108 30.625,336.937 30.900 C 336.766 31.175,336.613 31.760,336.597 32.200 C 336.524 34.131,335.513 35.538,335.087 34.300 C 334.992 34.025,334.962 34.115,335.020 34.500 C 335.078 34.885,334.947 35.200,334.729 35.200 C 334.511 35.200,334.416 35.425,334.517 35.700 C 334.617 35.975,334.884 36.161,335.109 36.114 C 335.346 36.064,335.416 36.401,335.275 36.914 C 335.076 37.641,335.006 37.674,334.887 37.100 C 334.807 36.715,334.575 36.400,334.371 36.400 C 334.167 36.400,334.029 36.535,334.065 36.700 C 334.100 36.865,333.909 37.535,333.641 38.188 C 333.372 38.842,333.237 39.697,333.339 40.089 C 333.454 40.529,333.361 40.699,333.095 40.535 C 332.822 40.367,332.758 40.513,332.919 40.934 C 333.071 41.330,332.977 41.602,332.687 41.606 C 332.374 41.610,332.411 41.746,332.789 41.985 C 333.289 42.301,333.269 42.399,332.655 42.634 C 332.087 42.852,332.047 42.984,332.466 43.250 C 332.866 43.503,332.874 43.589,332.500 43.594 C 332.225 43.597,332.000 43.791,332.000 44.024 C 332.000 44.257,332.225 44.333,332.500 44.194 C 332.775 44.055,332.640 44.232,332.200 44.588 C 331.760 44.943,331.385 45.362,331.366 45.517 C 331.348 45.673,331.107 46.340,330.831 47.000 C 330.311 48.244,329.994 49.367,329.871 50.400 C 329.832 50.730,329.698 51.090,329.572 51.200 C 329.187 51.539,327.991 54.800,328.252 54.800 C 328.387 54.800,328.320 55.025,328.102 55.300 C 327.731 55.768,326.418 59.445,326.389 60.095 C 326.382 60.257,326.021 61.218,325.587 62.231 C 325.153 63.244,324.899 64.236,325.022 64.436 C 325.146 64.636,325.080 64.800,324.876 64.800 C 324.671 64.800,324.269 65.655,323.982 66.700 C 323.695 67.745,323.201 69.005,322.884 69.500 C 322.567 69.995,322.441 70.400,322.603 70.400 C 322.765 70.400,322.670 70.674,322.392 71.010 C 322.114 71.345,321.993 71.726,322.124 71.857 C 322.255 71.988,322.090 72.367,321.758 72.699 C 321.426 73.031,321.249 73.550,321.364 73.852 C 321.480 74.153,321.381 74.400,321.145 74.400 C 320.908 74.400,320.813 74.657,320.933 74.971 C 321.054 75.285,320.889 75.760,320.567 76.028 C 320.244 76.295,320.076 76.609,320.192 76.725 C 320.308 76.841,320.125 77.361,319.785 77.879 C 319.445 78.398,319.292 79.025,319.445 79.273 C 319.608 79.536,319.545 79.613,319.294 79.458 C 318.905 79.218,318.142 81.338,318.470 81.751 C 318.541 81.842,318.271 82.279,317.870 82.723 C 317.468 83.167,317.098 83.771,317.047 84.065 C 316.996 84.359,316.552 85.371,316.062 86.314 C 315.571 87.256,315.294 88.229,315.447 88.476 C 315.605 88.731,315.544 88.813,315.306 88.665 C 315.060 88.514,314.783 88.967,314.633 89.763 C 314.493 90.509,314.024 91.570,313.589 92.123 C 313.155 92.675,312.800 93.400,312.800 93.735 C 312.800 94.069,312.554 94.589,312.253 94.889 C 311.314 95.829,308.603 100.951,308.489 102.000 C 308.430 102.550,308.249 104.170,308.087 105.600 C 307.506 110.739,308.418 111.747,312.617 110.610 C 317.013 109.420,317.863 108.531,321.321 101.496 C 331.978 79.819,340.253 57.010,347.187 30.200 C 348.325 25.800,349.783 20.356,350.428 18.103 C 351.974 12.700,351.929 11.512,350.000 6.704 C 348.247 2.334,348.121 1.682,348.969 1.357 C 349.282 1.236,349.636 0.882,349.757 0.569 C 350.005 -0.078,347.230 -0.210,345.800 0.381 M335.512 31.347 C 335.384 32.018,335.482 32.267,335.823 32.136 C 336.097 32.031,336.284 31.692,336.239 31.384 C 336.090 30.369,335.703 30.349,335.512 31.347 M334.800 38.824 C 334.800 39.251,334.530 39.600,334.200 39.600 C 333.517 39.600,333.397 38.973,334.007 38.596 C 334.230 38.458,334.292 38.149,334.145 37.911 C 333.985 37.651,334.063 37.591,334.338 37.762 C 334.592 37.919,334.800 38.397,334.800 38.824 M167.300 42.314 C 165.562 42.749,164.798 43.131,164.794 43.570 C 164.790 43.947,164.670 44.034,164.494 43.787 C 164.332 43.559,163.975 43.402,163.700 43.437 C 163.425 43.471,162.846 43.523,162.413 43.550 C 161.886 43.583,161.702 43.799,161.855 44.200 C 161.982 44.530,161.901 44.800,161.676 44.800 C 161.451 44.800,161.198 44.594,161.114 44.343 C 161.004 44.011,160.692 44.032,159.981 44.418 C 159.441 44.711,158.658 44.979,158.240 45.013 C 157.822 45.047,157.237 45.408,156.940 45.814 C 156.643 46.220,156.400 46.335,156.400 46.069 C 156.400 45.531,154.559 45.827,153.700 46.504 C 153.425 46.721,153.200 46.765,153.200 46.603 C 153.200 46.441,152.750 46.603,152.200 46.963 C 151.650 47.324,151.200 47.519,151.200 47.396 C 151.200 47.274,150.407 47.617,149.438 48.158 C 148.468 48.699,147.586 49.053,147.476 48.943 C 147.367 48.834,146.495 49.151,145.539 49.649 C 144.582 50.147,143.559 50.596,143.265 50.647 C 142.971 50.698,142.416 51.023,142.033 51.370 C 141.650 51.716,141.096 52.000,140.802 52.000 C 140.255 52.000,131.909 56.312,130.036 57.562 C 129.466 57.943,126.859 59.682,124.242 61.427 C 121.625 63.172,118.980 65.067,118.365 65.639 C 117.750 66.210,116.741 67.009,116.123 67.413 C 114.864 68.238,112.933 69.948,109.587 73.200 C 108.342 74.410,106.981 75.697,106.562 76.061 C 105.278 77.174,102.164 80.580,102.762 80.217 C 103.147 79.984,103.232 80.024,103.034 80.345 C 102.875 80.602,102.577 80.710,102.373 80.583 C 102.168 80.457,101.632 80.978,101.182 81.741 C 100.732 82.504,100.090 83.233,99.756 83.361 C 99.419 83.491,99.277 83.801,99.436 84.059 C 99.608 84.336,99.550 84.416,99.292 84.257 C 98.775 83.938,97.099 86.152,97.512 86.609 C 97.670 86.785,97.563 86.791,97.273 86.624 C 96.924 86.422,96.672 86.603,96.526 87.160 C 96.406 87.622,96.137 88.000,95.930 88.000 C 95.722 88.000,95.681 88.208,95.838 88.462 C 96.007 88.735,95.949 88.816,95.696 88.659 C 95.459 88.513,94.860 89.064,94.351 89.898 C 93.846 90.724,93.236 91.580,92.994 91.800 C 92.196 92.526,90.400 95.139,90.400 95.573 C 90.400 95.808,90.209 96.000,89.976 96.000 C 89.743 96.000,89.665 96.181,89.802 96.403 C 89.939 96.624,89.769 96.914,89.425 97.046 C 89.081 97.178,88.800 97.536,88.800 97.843 C 88.800 98.149,88.620 98.400,88.400 98.400 C 88.180 98.400,88.000 98.593,88.000 98.829 C 88.000 99.064,87.728 99.529,87.396 99.861 C 87.064 100.193,86.883 100.611,86.994 100.790 C 87.105 100.970,86.960 101.207,86.672 101.317 C 86.152 101.517,81.750 108.699,80.737 111.000 C 80.447 111.660,79.981 112.440,79.701 112.732 C 79.421 113.025,79.287 113.418,79.403 113.605 C 79.518 113.792,79.426 114.060,79.198 114.201 C 78.542 114.606,71.751 128.951,71.433 130.600 C 71.391 130.820,71.047 131.585,70.668 132.300 C 70.289 133.015,70.096 133.600,70.239 133.600 C 70.381 133.600,70.251 133.898,69.949 134.261 C 69.647 134.625,69.443 134.984,69.495 135.059 C 69.547 135.134,69.335 135.781,69.024 136.497 C 67.739 139.461,66.400 143.256,66.400 143.938 C 66.400 144.339,66.265 144.802,66.100 144.967 C 65.935 145.132,65.784 145.387,65.765 145.533 C 65.746 145.680,65.614 146.070,65.472 146.400 C 64.788 147.986,64.061 150.400,64.267 150.400 C 64.394 150.400,64.319 150.625,64.100 150.900 C 63.554 151.586,61.108 159.587,61.103 160.700 C 61.102 161.195,60.962 161.600,60.793 161.600 C 60.203 161.600,59.931 163.710,60.477 164.056 C 60.869 164.305,60.825 164.389,60.300 164.394 C 59.477 164.401,59.401 164.838,60.100 165.549 C 60.501 165.956,60.481 166.032,60.000 165.929 C 59.613 165.846,59.424 166.076,59.468 166.577 C 59.506 167.005,59.290 167.708,58.987 168.139 C 58.582 168.719,58.548 169.129,58.859 169.710 C 59.112 170.184,59.123 170.400,58.885 170.253 C 58.537 170.037,58.193 170.682,57.794 172.302 C 57.726 172.578,57.834 172.702,58.035 172.578 C 58.236 172.454,58.400 172.633,58.400 172.976 C 58.400 173.319,58.085 173.603,57.700 173.606 C 57.269 173.610,57.169 173.725,57.439 173.906 C 57.931 174.235,58.034 175.600,57.567 175.600 C 57.402 175.600,57.165 175.375,57.040 175.100 C 56.916 174.825,56.867 174.960,56.931 175.400 C 56.995 175.840,57.243 176.161,57.483 176.114 C 57.731 176.065,57.829 176.366,57.712 176.814 C 57.457 177.789,56.811 177.848,56.768 176.900 C 56.749 176.460,56.660 176.391,56.531 176.713 C 56.417 176.996,56.547 177.495,56.819 177.823 C 57.232 178.320,57.196 178.373,56.602 178.145 C 56.092 177.950,55.949 178.032,56.095 178.436 C 56.208 178.746,56.519 178.949,56.787 178.888 C 57.056 178.826,57.198 179.006,57.104 179.288 C 57.010 179.569,56.678 179.800,56.367 179.800 C 55.846 179.800,55.773 180.044,55.940 181.224 C 55.973 181.457,56.183 181.534,56.407 181.396 C 56.630 181.258,56.686 180.932,56.530 180.672 C 56.368 180.403,56.538 180.436,56.923 180.749 C 57.721 181.396,57.784 181.638,57.118 181.500 C 56.853 181.445,56.606 181.625,56.568 181.900 C 56.531 182.175,56.469 182.625,56.432 182.900 C 56.395 183.175,56.127 182.860,55.837 182.200 L 55.310 181.000 55.374 182.400 C 55.413 183.240,55.191 184.009,54.819 184.322 C 54.294 184.765,54.333 184.780,55.074 184.422 C 56.625 183.673,57.636 184.920,56.755 186.495 C 56.579 186.809,56.348 187.592,56.243 188.233 C 53.986 201.919,52.429 209.811,51.277 213.400 C 50.854 214.720,50.082 217.510,49.561 219.600 C 49.041 221.690,48.476 223.460,48.307 223.533 C 48.138 223.607,48.000 223.997,48.000 224.400 C 48.000 224.804,47.610 226.004,47.133 227.067 C 46.656 228.130,46.250 229.090,46.231 229.200 C 46.147 229.696,45.075 233.080,44.775 233.800 C 44.591 234.240,44.387 234.945,44.321 235.367 C 44.254 235.789,43.950 236.217,43.644 236.319 C 43.310 236.430,43.199 236.326,43.365 236.056 C 43.541 235.772,43.416 235.696,43.021 235.847 C 42.401 236.085,42.132 236.842,42.700 236.753 C 44.029 236.543,44.029 236.538,42.610 241.800 C 42.550 242.020,42.470 242.380,42.431 242.600 C 42.393 242.820,42.133 243.360,41.854 243.800 C 41.575 244.240,41.121 245.680,40.845 247.000 C 40.568 248.320,39.995 250.163,39.571 251.096 C 39.147 252.028,38.800 253.075,38.800 253.421 C 38.800 254.885,37.093 258.032,36.362 257.916 C 35.963 257.852,35.640 257.980,35.644 258.200 C 35.649 258.420,35.886 258.553,36.172 258.495 C 36.690 258.390,36.579 260.352,36.040 260.800 C 35.908 260.910,35.595 261.360,35.345 261.800 C 35.094 262.240,34.613 262.577,34.276 262.550 C 33.911 262.520,33.748 262.721,33.874 263.047 C 33.989 263.349,34.262 263.485,34.480 263.350 C 34.703 263.213,34.814 263.433,34.734 263.853 C 34.656 264.264,34.189 264.658,33.696 264.728 C 33.162 264.804,32.800 265.136,32.800 265.548 C 32.800 265.929,32.575 266.482,32.300 266.779 C 31.893 267.217,31.912 267.255,32.400 266.982 C 32.897 266.704,32.915 266.752,32.503 267.260 C 32.230 267.597,32.140 268.021,32.303 268.201 C 32.467 268.381,32.375 268.399,32.100 268.241 C 31.616 267.962,31.403 268.657,31.579 269.940 C 31.624 270.266,31.463 270.363,31.173 270.183 C 30.827 269.969,30.742 270.226,30.871 271.102 C 30.995 271.947,30.901 272.260,30.562 272.130 C 30.220 271.999,30.115 272.377,30.209 273.397 C 30.323 274.622,30.254 274.777,29.772 274.377 C 29.159 273.868,29.047 274.137,29.172 275.807 C 29.206 276.251,28.876 276.997,28.441 277.464 C 28.005 277.932,27.757 278.424,27.891 278.557 C 28.024 278.691,27.917 278.800,27.653 278.800 C 27.279 278.800,27.278 279.000,27.651 279.700 C 28.086 280.516,28.069 280.549,27.465 280.051 C 26.874 279.563,26.800 279.621,26.800 280.575 C 26.800 281.326,26.950 281.557,27.300 281.347 C 27.686 281.115,27.695 281.178,27.338 281.623 C 27.084 281.940,26.814 282.648,26.738 283.196 C 26.661 283.753,26.292 284.251,25.901 284.325 C 25.382 284.424,25.264 284.271,25.439 283.729 C 25.636 283.122,25.603 283.101,25.245 283.600 C 24.924 284.047,24.967 284.314,25.414 284.649 C 26.304 285.316,25.718 286.487,24.653 286.171 C 23.812 285.921,23.811 285.926,24.594 286.522 C 25.383 287.123,25.382 287.137,24.494 288.801 C 24.002 289.722,23.600 290.689,23.600 290.949 C 23.600 291.652,17.476 303.949,14.653 308.916 C 13.304 311.289,11.746 314.079,11.191 315.116 C 10.594 316.229,9.920 316.981,9.542 316.953 C 9.110 316.921,8.965 317.144,9.094 317.639 C 9.393 318.781,8.155 319.824,7.312 319.140 C 6.937 318.836,6.768 318.804,6.926 319.066 C 7.079 319.322,6.979 319.623,6.702 319.735 C 6.322 319.890,6.346 320.042,6.800 320.363 C 7.187 320.637,7.227 320.790,6.913 320.794 C 6.644 320.797,6.529 321.070,6.655 321.400 C 6.801 321.780,6.650 322.000,6.243 322.000 C 5.808 322.000,5.600 322.357,5.599 323.100 C 5.598 323.705,4.962 325.254,4.185 326.543 C 2.467 329.393,2.573 329.579,6.626 330.782 C 12.153 332.422,13.087 331.763,18.800 322.182 C 36.194 293.015,51.736 251.232,59.945 211.568 C 77.026 129.049,99.283 88.711,140.449 65.669 C 160.250 54.585,177.121 50.604,204.300 50.601 C 219.768 50.600,220.931 50.458,216.770 49.083 C 207.195 45.917,188.357 44.457,171.908 45.606 C 163.897 46.166,163.143 46.098,165.423 45.016 C 166.476 44.516,166.823 44.130,166.686 43.609 C 166.544 43.064,166.718 42.904,167.411 42.945 C 167.913 42.975,168.231 43.150,168.117 43.334 C 168.004 43.517,168.336 43.607,168.856 43.534 C 169.375 43.460,169.800 43.130,169.800 42.800 C 169.800 42.470,170.070 42.078,170.400 41.928 C 171.451 41.452,170.055 41.626,167.300 42.314 M49.871 207.904 C 49.469 207.995,49.230 208.302,49.339 208.586 C 49.448 208.870,49.375 209.265,49.176 209.464 C 48.977 209.663,48.745 210.591,48.661 211.526 C 48.577 212.460,48.394 213.340,48.254 213.479 C 47.866 213.867,47.952 214.477,48.358 214.226 C 48.555 214.104,48.823 214.283,48.954 214.623 C 49.088 214.973,49.021 215.137,48.800 215.000 C 48.578 214.863,48.512 215.027,48.647 215.379 C 48.990 216.273,49.600 216.143,49.600 215.176 C 49.600 214.723,49.777 214.462,49.992 214.595 C 50.229 214.741,50.348 214.197,50.292 213.221 C 50.238 212.268,50.000 211.603,49.713 211.602 C 49.444 211.601,49.324 211.341,49.446 211.025 C 49.567 210.709,49.897 210.539,50.179 210.647 C 50.505 210.772,50.786 210.371,50.951 209.547 C 51.240 208.099,50.951 207.658,49.871 207.904 M47.728 216.300 C 47.836 216.795,47.762 217.200,47.563 217.200 C 47.363 217.200,47.200 217.573,47.200 218.029 C 47.200 218.611,47.409 218.813,47.900 218.706 C 48.285 218.621,48.548 218.316,48.484 218.027 C 48.411 217.700,48.599 217.591,48.984 217.738 C 49.410 217.902,49.600 217.732,49.600 217.187 C 49.600 216.483,49.376 216.323,48.545 216.434 C 48.404 216.453,48.119 216.228,47.910 215.934 C 47.639 215.553,47.587 215.657,47.728 216.300 M43.600 231.908 C 43.600 232.094,43.840 232.575,44.133 232.976 C 44.521 233.506,44.667 233.550,44.667 233.135 C 44.667 232.822,44.427 232.341,44.133 232.067 C 43.840 231.793,43.600 231.721,43.600 231.908 M333.803 330.900 C 333.686 331.395,333.148 333.827,332.608 336.304 C 332.067 338.781,330.989 342.844,330.213 345.333 C 328.137 351.980,328.338 352.563,331.551 349.212 C 334.977 345.639,335.802 343.420,335.791 337.800 C 335.780 331.946,334.557 327.702,333.803 330.900 " stroke="none" fill="#000000" fill-rule="evenodd"></path></g></svg>